<svg class="svg-icon" style="width: 1em; height: 1em;vertical-align: middle;fill: currentColor;overflow: hidden;" viewBox="0 0 1024 1024" version="1.1" xmlns="http://www.w3.org/2000/svg"><path d="M166.5 844a371.4 99.6 0 1 0 742.8 0 371.4 99.6 0 1 0-742.8 0Z" fill="#DBD5C0" /><path d="M242.9 398.8c-86.9 202.1-74.4 407 49.8 467.8 124.2 60.8 303.2-50.2 399.9-247.7 90.6-185.2 77.6-331.7-30-412.4-12.5-9.4-4.6-51.2-4.6-51.2s-270.6-92.5-415.1 243.5z" fill="#F5AE8C" /><path d="M483.5 772.2c47.6-24.5 251.4-156.9 227.5-516.6 84.2 168.8-43.6 453.6-171.6 549.6-90.9 68.1-200.4 83.9-246.7 61.3-38.3-18.7-66-51.2-83.4-93 132 64.1 194.5 39.7 274.2-1.3z" fill="#E66E44" /><path d="M603.6 215.5c-5.6-19-37.7-11.7-37.7-11.7s-335.8 80.9-360.3 535.4l-11.3-16.7c51.2 65.6 88.2 18.7 88.7-5.5 17-183.6 329-177.2 308.6-340.8s58.2-216.4 58.2-216.4l-46.2 55.7z" fill="#FFCFAD" /><path d="M767.9 372.2c-2.9-37.1-12.4-71-28.4-100.9-15.9-29.8-38.3-55.8-66.5-77.1-2.3-4.9-2-22 0.6-36.1 1.5-7.8-3-15.5-10.5-18.1-2.9-1-72.9-24.3-161.9-4.7-52.3 11.6-100.4 35.6-142.8 71.4C306 251 262.2 313.5 228.2 392.4 184.3 494.6 164.6 599.2 172.7 687.1c4.2 45.1 15.5 84.5 33.6 116.9 19.4 34.8 46.1 60.6 79.3 76.9 24.9 12.2 52 18.3 80.8 18.3 9.7 0 19.6-0.7 29.8-2.1 37.8-5.2 76.6-20 115.2-43.9 78-48.4 147.5-129.1 195.6-227.4 46.1-94.2 66.6-179.5 60.9-253.6z m-510.3 32.9l0.1 0.1C289.5 331.3 330.1 273 378.4 232c38.2-32.5 81.4-54.3 128.3-64.9 47.3-10.7 89.2-7.8 115.9-3.5-5.9 6.7-12.6 15.7-19.2 27.1l-0.8 1c-7.1-3.7-14.6-4.7-19-5-10.7-0.7-20.2 1.4-21.3 1.6h-0.2c-3.6 0.9-88.8 22-177.8 100.8-52.1 46.1-94.7 102.6-126.5 167.7-24.5 50.1-42.6 105.5-54.2 165.5 3.6-68.1 22.1-143.2 54-217.2z m318.2-26.8c3.9 31.8-6.3 58.1-32.4 82.8-25.1 23.8-61.4 43.3-99.7 64-78.5 42.3-167.4 90.2-176.7 190.5-0.1 0.3-0.1 0.7-0.1 1.1-0.1 6.7-6.9 19.1-16.7 22.4-7.7 2.6-17.5-1-28-10 6.4-96.7 27.9-183.2 64-257.3 29.8-61.3 69.5-114.3 118.2-157.7 82-73 162.4-94 165.3-94.7 6.9-1.5 16.5-1.1 18.7 0.7 0.1 0.6 0.4 1.2 0.6 1.8-13.4 36.1-21.9 86.9-13.2 156.4z m102.5 233.6C632.8 704.7 567.6 780.8 494.6 826c-44.2 27.4-87.8 41.3-127.7 41.3-23.9 0-46.5-5-67.1-15.1-27.3-13.3-49.3-34.7-65.5-63.7-3.6-6.5-6.9-13.4-10-20.6 6.8 2.8 13.7 4.1 20.6 4.1 5.3 0 10.4-0.9 15.4-2.4 23.4-7.8 37.9-32.1 38.6-51.5 3.6-37.1 20.4-67.9 52.9-96.7 29.9-26.6 69.1-47.7 107-68.1 78.8-42.5 160.2-86.3 148.6-179-9.9-79 4.7-129.6 18.7-158.1 1.3-2.7 2.6-5.1 3.9-7.5l10.7-12.9c1.8 10.9 5.9 18.7 12.4 23.5 50 37.6 77.9 89.9 83 155.5 5.2 68.3-14.2 148-57.8 237.1z" fill="#802637" /><path d="M527.4 369.8s63.3 46.7 91.6 62.8c48 27.5 103 88.9 146.2 169.1 68.6 127.4 81.5 253.7 28.6 282.2-52.8 28.5-151.3-51.7-220-179.1-48-89-68.7-177.6-58.8-232.5 4.4-23.7 12.4-102.5 12.4-102.5z" fill="#FFCFAD" /><path d="M712.8 605.4c-35-68.1-81-110.9-179.3-217.4-18.8-20.4 57.3 28.4 85.5 44.6 48 27.5 103 88.9 146.2 169.1 64.6 120 127.1 341.8-60.2 253.4 41.5 13.6 65.4 0.4 67-11.8 11.5-85.6-10-142.4-59.2-237.9z" fill="#FD9D57" /><path d="M770 905.7c-26.5 0-57.5-13.7-90.3-40.4-43.1-35.1-85.7-89.4-119.9-152.8-48.2-89.4-71.3-182.5-60.4-242.9 4.1-22.8 12-100.5 12.1-101.3 0.6-5.7 4.2-10.7 9.4-13 5.3-2.3 11.3-1.7 16 1.7 0.6 0.5 62.9 46.3 90.1 61.8 52.4 30 109.3 95.5 152.4 175.4 34.2 63.4 56.1 128.8 61.7 184.2 6.1 60.2-8 102.7-39.6 119.7-9.6 5.1-20.1 7.6-31.5 7.6zM540.4 399c-2.7 25.3-6.8 61.1-9.5 76.2-4.6 25.2-2 58.7 7.5 96.8 9.9 40.1 27.1 83.4 49.6 125.3 60.4 112 137.8 176.4 181.9 176.4 6.1 0 11.6-1.2 16.4-3.8 19.2-10.3 27.6-42.5 22.9-88.3-5.2-51.3-25.8-112.4-58-172.2-40.3-74.8-92.7-135.7-140.1-162.8-18.2-10.5-49.4-32.4-70.7-47.6z" fill="#802637" /><path d="M597 575.7c-3-7.7-8.4-24.7-13-43.5-4.7-19.3-7.2-35.4-6.7-42.9 0.6-8.9-6.1-16.5-14.9-17.1-8.9-0.6-16.5 6.1-17.1 14.9-1.7 25.2 14.6 81.8 21.9 100.4 2.5 6.3 8.5 10.1 14.9 10.1 1.9 0 3.9-0.4 5.9-1.1 8.2-3.3 12.2-12.6 9-20.8zM607.6 613.2c-7.7-2.7-16.2 1.2-19.6 8.6l-0.1 0.2c-3.5 7.8-0.3 17.7 7.4 21.4 2.3 1.1 4.7 1.6 7 1.6 7-0.4 11-3.8 13.2-6.9 1.5-2 2.3-4.4 2.6-6.9 1.5-11.1-4.6-15.9-10.5-18z" fill="#FFFFFF" /></svg>